<?xml version="1.0" encoding="UTF-8"?>
<svg version="1.1" xmlns="http://www.w3.org/2000/svg" width="500" height="500">
<path d="M0 0 C0 0.66 0 1.32 0 2 C0.70898438 2.24878906 1.41796875 2.49757813 2.1484375 2.75390625 C12.81592263 7.41545112 24.57750598 18.29255822 31 28 C31 28.66 31 29.32 31 30 C31.66 30 32.32 30 33 30 C34.45194365 31.88052942 35.81364605 33.83136849 37.125 35.8125 C38.21167969 37.43091797 38.21167969 37.43091797 39.3203125 39.08203125 C41 42 41 42 41 45 C41.66 45 42.32 45 43 45 C43.70733865 46.64472362 44.41400664 48.28973825 45.11767578 49.93603516 C45.68909057 51.27270937 46.2628358 52.60839072 46.83935547 53.94287109 C59.87678784 84.44397805 61.11574425 117.90455155 49 149 C47.20688696 153.106703 45.16254765 157.0762022 43 161 C42.34 161 41.68 161 41 161 C41 162.32 41 163.64 41 165 C40.34 165 39.68 165 39 165 C38.89872803 165.55268555 38.79745605 166.10537109 38.69311523 166.67480469 C37.21266292 171.64128155 33.8367099 175.9168436 31.0625 180.25 C30.41603516 181.28125 29.76957031 182.3125 29.10351562 183.375 C28.48283203 184.34953125 27.86214844 185.3240625 27.22265625 186.328125 C26.65297119 187.2243457 26.08328613 188.12056641 25.49633789 189.04394531 C25.00254639 189.68944336 24.50875488 190.33494141 24 191 C23.34 191 22.68 191 22 191 C21.855625 191.61875 21.71125 192.2375 21.5625 192.875 C21 195 21 195 20 197 C19.34 197 18.68 197 18 197 C17.75636719 197.70769531 17.51273438 198.41539062 17.26171875 199.14453125 C15.82015913 202.40700829 13.99787452 204.87020996 11.8125 207.6875 C8.16761678 212.43172703 4.72296626 217.25341243 1.41015625 222.234375 C0.94480469 222.81703125 0.47945312 223.3996875 0 224 C-0.66 224 -1.32 224 -2 224 C-2.28875 224.763125 -2.5775 225.52625 -2.875 226.3125 C-4 229 -4 229 -6 232 C-6.66 232 -7.32 232 -8 232 C-8 232.66 -8 233.32 -8 234 C-8.66 234 -9.32 234 -10 234 C-10.2578125 234.71542969 -10.515625 235.43085938 -10.78125 236.16796875 C-12.07384765 239.17160111 -13.6277709 241.63505372 -15.5 244.3125 C-16.41265625 245.63701172 -16.41265625 245.63701172 -17.34375 246.98828125 C-18.16359375 247.98408203 -18.16359375 247.98408203 -19 249 C-19.66 249 -20.32 249 -21 249 C-21 249.66 -21 250.32 -21 251 C-21.66 251 -22.32 251 -23 251 C-23.19722656 251.66 -23.39445313 252.32 -23.59765625 253 C-25.56942723 257.21816188 -28.44738012 260.45760661 -31.4375 264 C-35.91494498 269.27944199 -35.91494498 269.27944199 -39.78515625 275 C-40.18605469 275.66 -40.58695313 276.32 -41 277 C-41.66 277 -42.32 277 -43 277 C-43.22816406 277.5259375 -43.45632813 278.051875 -43.69140625 278.59375 C-45.44528881 281.81879973 -47.67658048 284.62246607 -49.9375 287.5 C-50.8217855 288.63528356 -51.70590411 289.77069713 -52.58984375 290.90625 C-53.78287109 292.43765625 -53.78287109 292.43765625 -55 294 C-55.83724609 295.19109375 -55.83724609 295.19109375 -56.69140625 296.40625 C-57.12324219 296.9321875 -57.55507813 297.458125 -58 298 C-58.66 298 -59.32 298 -60 298 C-60.66 299.65 -61.32 301.3 -62 303 C-65.36704285 303.2295711 -67.41370268 303.33943529 -70.375 301.625 C-71.179375 300.820625 -71.179375 300.820625 -72 300 C-72 299.34 -72 298.68 -72 298 C-72.66 298 -73.32 298 -74 298 C-75.47265625 296.390625 -75.47265625 296.390625 -77.0625 294.25 C-77.58972656 293.55390625 -78.11695313 292.8578125 -78.66015625 292.140625 C-79.96931568 290.04902334 -80.56033954 288.40999065 -81 286 C-81.66 286 -82.32 286 -83 286 C-83 285.34 -83 284.68 -83 284 C-83.66 284 -84.32 284 -85 284 C-85.66 282.35 -86.32 280.7 -87 279 C-87.66 279 -88.32 279 -89 279 C-90.58428311 277.13846735 -92.04898223 275.27451388 -93.5 273.3125 C-94.39285963 272.12472212 -95.28610051 270.93723076 -96.1796875 269.75 C-96.64084961 269.13382812 -97.10201172 268.51765625 -97.57714844 267.8828125 C-98.99261583 266.00977122 -100.43226544 264.15847151 -101.8828125 262.3125 C-102.57213867 261.4321106 -102.57213867 261.4321106 -103.27539062 260.53393555 C-104.16425656 259.40018126 -105.05611461 258.26876543 -105.95117188 257.13989258 C-109 253.22391587 -109 253.22391587 -109 251 C-109.66 251 -110.32 251 -111 251 C-115 245.58823529 -115 245.58823529 -115 243 C-115.66 243 -116.32 243 -117 243 C-118.2890625 241.5390625 -118.2890625 241.5390625 -119.625 239.625 C-120.07101563 238.99851562 -120.51703125 238.37203125 -120.9765625 237.7265625 C-122 236 -122 236 -122 234 C-122.66 234 -123.32 234 -124 234 C-125.41015625 232.453125 -125.41015625 232.453125 -127.0625 230.25 C-127.99835938 229.01056641 -127.99835938 229.01056641 -128.953125 227.74609375 C-129.62859375 226.83988281 -130.3040625 225.93367187 -131 225 C-131.69609375 224.08347656 -132.3921875 223.16695312 -133.109375 222.22265625 C-137.32503913 216.65409282 -141.46852877 211.0335183 -145.5625 205.375 C-146.00440674 204.77083252 -146.44631348 204.16666504 -146.90161133 203.54418945 C-150 199.23159237 -150 199.23159237 -150 197 C-150.66 197 -151.32 197 -152 197 C-154 194 -154 194 -154 191 C-154.66 191 -155.32 191 -156 191 C-157.38525391 189.20263672 -157.38525391 189.20263672 -158.9765625 186.6796875 C-159.85344727 185.29825562 -159.85344727 185.29825562 -160.74804688 183.88891602 C-161.67713867 182.39702759 -161.67713867 182.39702759 -162.625 180.875 C-163.25728516 179.86687256 -163.88957031 178.85874512 -164.54101562 177.82006836 C-166.37204509 174.88690001 -168.18925381 171.94572399 -170 169 C-170.44311523 168.28247559 -170.88623047 167.56495117 -171.34277344 166.82568359 C-187.90770102 139.78277081 -193.64524831 107.30550304 -186.55664062 76.20458984 C-182.99195905 62.08657466 -177.3904184 49.75730786 -169.8125 37.375 C-169.37196289 36.65038574 -168.93142578 35.92577148 -168.47753906 35.17919922 C-167.3746275 33.41632098 -166.19362599 31.70276557 -165 30 C-164.34 30 -163.68 30 -163 30 C-162.78859375 29.30261719 -162.5771875 28.60523438 -162.359375 27.88671875 C-160.62084504 24.19484048 -158.12345841 21.63487283 -155.25 18.8125 C-154.6823291 18.24877686 -154.1146582 17.68505371 -153.52978516 17.10424805 C-147.54298286 11.31286309 -140.92184771 6.59901742 -134 2 C-133.01 1.34 -132.02 0.68 -131 0 C-130.01 0 -129.02 0 -128 0 C-128 -0.66 -128 -1.32 -128 -2 C-119.21038412 -6.14294175 -110.46388492 -10.12928375 -101.125 -12.875 C-100.48570557 -13.06537842 -99.84641113 -13.25575684 -99.18774414 -13.4519043 C-67.07293993 -22.44242444 -28.47097884 -17.82701198 0 0 Z M-112 6 C-112.87398437 6.42539063 -113.74796875 6.85078125 -114.6484375 7.2890625 C-119.54259753 9.6847024 -124.30114306 12.24197528 -129 15 C-129 15.66 -129 16.32 -129 17 C-130.32 17.33 -131.64 17.66 -133 18 C-133 18.66 -133 19.32 -133 20 C-133.55300781 20.23847656 -134.10601562 20.47695312 -134.67578125 20.72265625 C-137.54665315 22.30042955 -139.75309811 24.24761706 -142.1875 26.4375 C-143.06792969 27.21996094 -143.94835937 28.00242187 -144.85546875 28.80859375 C-147.20702721 30.89188406 -147.20702721 30.89188406 -148 34 C-148.66 34 -149.32 34 -150 34 C-152.14116162 36.29787387 -153.87892769 38.93636048 -155.6875 41.5 C-156.22624756 42.26231934 -156.76499512 43.02463867 -157.32006836 43.81005859 C-162.3494208 51.14292547 -165.77495716 58.75323308 -169 67 C-169.53448088 68.25716607 -170.0734574 69.51243151 -170.6171875 70.765625 C-179.11262116 90.63630034 -178.21154581 115.64153879 -170.26953125 135.5546875 C-166.34917218 144.64374895 -161.35175451 152.39853206 -155 160 C-154.36835938 160.78246094 -153.73671875 161.56492187 -153.0859375 162.37109375 C-149.74577305 166.38076253 -146.56990565 169.44935499 -142 172 C-141.34 172 -140.68 172 -140 172 C-139.75765625 170.7934375 -139.5153125 169.586875 -139.265625 168.34375 C-138.92766351 166.72904512 -138.58908899 165.11446848 -138.25 163.5 C-138.09273437 162.70851563 -137.93546875 161.91703125 -137.7734375 161.1015625 C-136.58340172 155.51754845 -134.65771648 151.04742794 -132 146 C-132 145.34 -132 144.68 -132 144 C-131.34 144 -130.68 144 -130 144 C-129.38125 143.05125 -128.7625 142.1025 -128.125 141.125 C-126.12075527 138.17758128 -125.25209269 137.16146167 -122 136 C-122 135.34 -122 134.68 -122 134 C-121.34 133.7525 -120.68 133.505 -120 133.25 C-116.88128423 132.00353106 -116.88128423 132.00353106 -113.5625 130.1875 C-108.57053768 127.62923908 -103.28020896 125.93146211 -97.9765625 124.1484375 C-94.936191 123.2063072 -94.936191 123.2063072 -93 121 C-93 117.23306239 -94.50498669 115.26901597 -96.8125 112.5 C-104.96542515 101.89137451 -105.51141844 87.85645276 -104 75 C-102.40432936 67.04057527 -98.76461445 60.6365119 -93 55 C-92.34 54.67 -91.68 54.34 -91 54 C-91 53.34 -91 52.68 -91 52 C-90.195625 51.7525 -89.39125 51.505 -88.5625 51.25 C-85.8181518 50.28707081 -83.4687193 49.24501355 -80.88671875 47.9609375 C-75.94317069 45.75687824 -71.62018898 45.30801655 -66.25 45.375 C-65.3832666 45.37757813 -64.5165332 45.38015625 -63.62353516 45.3828125 C-55.58035025 45.62161554 -49.99885555 48.06753267 -43 52 C-42.34 52 -41.68 52 -41 52 C-41 52.66 -41 53.32 -41 54 C-40.34 54 -39.68 54 -39 54 C-39 54.66 -39 55.32 -39 56 C-38.34 56 -37.68 56 -37 56 C-37 56.66 -37 57.32 -37 58 C-36.34 58 -35.68 58 -35 58 C-34.566875 58.87591797 -34.566875 58.87591797 -34.125 59.76953125 C-33.43781616 61.13196865 -32.73350293 62.48614896 -32 63.82421875 C-24.98846251 76.88868509 -26.1975943 90.051663 -30 104 C-30.21269531 104.78375 -30.42539062 105.5675 -30.64453125 106.375 C-31.07804193 107.92191582 -31.53509236 109.46222858 -32 111 C-32.66 111 -33.32 111 -34 111 C-35.36233884 112.4501405 -35.36233884 112.4501405 -36.625 114.3125 C-37.29402344 115.23482422 -37.29402344 115.23482422 -37.9765625 116.17578125 C-39.24464281 118.08744556 -39.24464281 118.08744556 -39 121 C-31.90811017 124.8086075 -24.79619175 127.08671441 -17 129 C-17 129.66 -17 130.32 -17 131 C-15.989375 131.53625 -14.97875 132.0725 -13.9375 132.625 C-5.23034789 137.663211 1.5316208 144.26612008 4.2265625 154.18359375 C5.27702936 158.43248338 6.15912445 162.7050664 7 167 C7.29970703 168.49273437 7.29970703 168.49273437 7.60546875 170.015625 C7.73566406 170.67046875 7.86585938 171.3253125 8 172 C12.64497632 170.57077652 15.55825413 167.91076637 18.875 164.5 C19.66825684 163.68825317 19.66825684 163.68825317 20.47753906 162.86010742 C32.33984118 150.49051188 40.22801403 134.94256941 43 118 C43.3403125 116.081875 43.3403125 116.081875 43.6875 114.125 C45.08624654 100.22495622 44.63009969 84.9247506 39 72 C38.66226563 71.05125 38.32453125 70.1025 37.9765625 69.125 C33.47562872 56.55863456 26.80476533 44.12754698 18 34 C17.34 34 16.68 34 16 34 C15.78859375 33.45730469 15.5771875 32.91460937 15.359375 32.35546875 C13.49982906 29.13332448 10.96533643 26.80338563 8.25 24.3125 C7.39305542 23.52456055 7.39305542 23.52456055 6.51879883 22.72070312 C-1.60179105 15.45334363 -10.99585405 9.35231917 -21 5 C-21.71800781 4.67644531 -22.43601562 4.35289063 -23.17578125 4.01953125 C-36.39612124 -1.62778256 -48.66056267 -3.66540156 -62.9152832 -3.52148438 C-65.43213509 -3.5000457 -67.94612473 -3.52140117 -70.46289062 -3.546875 C-85.41202732 -3.57237206 -98.57116345 -0.85993198 -112 6 Z M-72.875 58.375 C-74.17050781 58.75785156 -74.17050781 58.75785156 -75.4921875 59.1484375 C-77.79436998 59.93017548 -79.85950295 60.85508297 -82 62 C-82 62.66 -82 63.32 -82 64 C-83.98 64.99 -83.98 64.99 -86 66 C-86 66.66 -86 67.32 -86 68 C-86.66 68 -87.32 68 -88 68 C-92.63129256 76.72406273 -94.25049627 85.28148058 -91.6640625 94.9375 C-89.92371038 100.34282893 -87.91703533 104.83025272 -84 109 C-83.34 109 -82.68 109 -82 109 C-81.00611996 112.34232238 -80.80267235 115.45673536 -80.75 118.9375 C-80.71132812 120.46697266 -80.71132812 120.46697266 -80.671875 122.02734375 C-81.04428219 125.40117554 -82.14939508 127.19974255 -84 130 C-84 130.66 -84 131.32 -84 132 C-84.80953125 132.26425781 -85.6190625 132.52851563 -86.453125 132.80078125 C-107.33914473 139.44987424 -107.33914473 139.44987424 -123 154 C-126.7830759 161.66909265 -128.87289754 170.43469285 -128 179 C-125.78469841 181.90145695 -123.69417096 183.43104714 -120.25 184.5625 C-117.58525105 185.46381214 -114.97514758 186.40050443 -112.3515625 187.42578125 C-107.69267666 189.17935214 -102.95230335 190.42741479 -98.125 191.625 C-97.29097656 191.8415625 -96.45695312 192.058125 -95.59765625 192.28125 C-74.48292203 197.56809226 -51.99272077 195.92876341 -31 191 C-30.30277832 190.83983398 -29.60555664 190.67966797 -28.88720703 190.51464844 C-20.59317728 188.5540522 -12.00142724 185.999286 -5 181 C-3.30194415 177.89309591 -3.30194415 177.89309591 -4 174 C-4.0825 173.01515625 -4.165 172.0303125 -4.25 171.015625 C-5.5535939 159.44622915 -9.23754167 151.51773194 -18.1953125 143.96875 C-23.66600695 140.12859679 -29.71020882 138.11089429 -35.99609375 135.98828125 C-48.07995495 131.84009009 -48.07995495 131.84009009 -51 126 C-51.14867166 123.87856978 -51.2213289 121.75144008 -51.25 119.625 C-51.27578125 118.48289063 -51.3015625 117.34078125 -51.328125 116.1640625 C-50.97138092 112.72403035 -50.21472906 111.55276665 -48 109 C-48 108.34 -48 107.68 -48 107 C-47.34 107 -46.68 107 -46 107 C-40.16751869 99.16260324 -37.98657943 90.78475038 -39 81 C-40.0904698 76.24158632 -41.28088738 72.07866892 -44 68 C-44.66 68 -45.32 68 -46 68 C-46 67.34 -46 66.68 -46 66 C-46.66 66 -47.32 66 -48 66 C-48 65.34 -48 64.68 -48 64 C-54.72457623 58.20939269 -64.42062554 55.84119638 -72.875 58.375 Z " fill="#F4F3F3" transform="translate(316,104)"/>
<path d="M0 0 C1.61178642 0.03050193 3.2238863 0.04397323 4.8359375 0.05273438 C27.51950593 1.04514049 47.21356179 14.17027114 62.81640625 29.62695312 C63.9609375 31.03710938 63.9609375 31.03710938 63.9609375 33.03710938 C64.6209375 33.03710938 65.2809375 33.03710938 65.9609375 33.03710938 C67.6758918 35.23164381 69.23854004 37.40779892 70.7734375 39.72460938 C71.22340088 40.40144775 71.67336426 41.07828613 72.13696289 41.77563477 C76.07467068 47.88232818 78.66244745 54.15105926 80.9609375 61.03710938 C81.51857705 62.41408773 82.0804126 63.78938254 82.6484375 65.16210938 C85.65594276 73.33022026 87.47327964 83.41163258 85.9609375 92.03710938 C83.6386038 94.97214388 82.70679987 95.92833778 78.9609375 96.47460938 C75.55947766 95.97856315 74.35485103 95.47151193 71.9609375 93.03710938 C71.45703125 90.06835938 71.45703125 90.06835938 71.3984375 86.53710938 C70.73367777 72.41819077 65.79724217 57.21243587 56.9609375 46.03710938 C56.9609375 45.37710938 56.9609375 44.71710938 56.9609375 44.03710938 C56.3009375 44.03710938 55.6409375 44.03710938 54.9609375 44.03710938 C53.9709375 41.56210938 53.9709375 41.56210938 52.9609375 39.03710938 C52.3009375 39.03710938 51.6409375 39.03710938 50.9609375 39.03710938 C48.3359375 36.66210937 48.3359375 36.66210937 45.9609375 34.03710938 C45.9609375 33.37710938 45.9609375 32.71710938 45.9609375 32.03710938 C45.1978125 31.74835938 44.4346875 31.45960938 43.6484375 31.16210938 C40.9609375 30.03710938 40.9609375 30.03710938 37.9609375 28.03710938 C37.9609375 27.37710938 37.9609375 26.71710938 37.9609375 26.03710938 C36.9709375 26.03710938 35.9809375 26.03710938 34.9609375 26.03710938 C34.9609375 25.37710938 34.9609375 24.71710938 34.9609375 24.03710938 C33.754375 23.66585937 33.754375 23.66585937 32.5234375 23.28710938 C29.76160178 22.31804421 27.22996553 21.26518479 24.5859375 20.03710938 C12.30973603 14.54940342 -1.80451732 13.0576533 -15.0390625 15.03710938 C-16.31910156 15.22402344 -17.59914063 15.4109375 -18.91796875 15.60351562 C-31.28042195 17.57543163 -41.44285424 21.60142579 -51.859375 28.68164062 C-54.0390625 30.03710938 -54.0390625 30.03710938 -56.0390625 30.03710938 C-56.0390625 30.69710937 -56.0390625 31.35710937 -56.0390625 32.03710938 C-57.75390625 33.69335938 -57.75390625 33.69335938 -59.9765625 35.53710938 C-62.95951429 37.92637936 -62.95951429 37.92637936 -65.0390625 41.03710938 C-65.6990625 41.03710938 -66.3590625 41.03710938 -67.0390625 41.03710938 C-68.0290625 43.51210937 -68.0290625 43.51210937 -69.0390625 46.03710938 C-69.6990625 46.03710938 -70.3590625 46.03710938 -71.0390625 46.03710938 C-71.3484375 47.18179688 -71.3484375 47.18179688 -71.6640625 48.34960938 C-72.85692252 51.54864308 -74.17750657 54.00469376 -75.9140625 56.91210938 C-81.30560321 66.60106395 -83.36595764 77.57776025 -83.765625 88.58398438 C-84.0565876 91.19433456 -84.63595245 92.82795738 -86.0390625 95.03710938 C-88.87989891 96.45752758 -90.89383528 96.3516321 -94.0390625 96.03710938 C-96.72625984 93.97078073 -97.89408665 92.75665863 -98.5703125 89.40039062 C-98.36591193 69.44578494 -91.41719983 48.11145226 -78.0390625 33.03710938 C-77.3790625 33.03710938 -76.7190625 33.03710938 -76.0390625 33.03710938 C-75.7296875 31.96783203 -75.7296875 31.96783203 -75.4140625 30.87695312 C-73.65359345 27.24098438 -71.1120938 25.09990348 -68.0390625 22.59960938 C-67.45817871 22.11806396 -66.87729492 21.63651855 -66.27880859 21.14038086 C-61.4799002 17.23657492 -56.46306154 14.01062313 -51.0390625 11.03710938 C-49.9253125 10.33585938 -48.8115625 9.63460937 -47.6640625 8.91210938 C-33.19725767 0.70399316 -16.19995546 -0.30703887 0 0 Z " fill="#EDECEC" transform="translate(256.0390625,117.962890625)"/>
<path d="M0 0 C0.33 0.99 0.66 1.98 1 3 C-0.26451932 4.31858428 -1.53685475 5.62967631 -2.8125 6.9375 C-3.52019531 7.66839844 -4.22789062 8.39929688 -4.95703125 9.15234375 C-7 11 -7 11 -10 12 C-8.52278578 8.54798361 -6.56205999 6.35038064 -3.875 3.75 C-3.15054688 3.04359375 -2.42609375 2.3371875 -1.6796875 1.609375 C-1.12539062 1.07828125 -0.57109375 0.5471875 0 0 Z " fill="#B0AFAF" transform="translate(164,120)"/>
<path d="M0 0 C0.33 0.66 0.66 1.32 1 2 C1.66 2.33 2.32 2.66 3 3 C1 5 -1 7 -3 9 C-2.01 6.03 -1.02 3.06 0 0 Z " fill="#C5C4C1" transform="translate(137,159)"/>
<path d="M0 0 C0.33 0.66 0.66 1.32 1 2 C0.33333333 3.33333333 -0.33333333 4.66666667 -1 6 C-0.67 6.66 -0.34 7.32 0 8 C-1.32 8.33 -2.64 8.66 -4 9 C-2.25 2.25 -2.25 2.25 0 0 Z " fill="#C3C3C1" transform="translate(142,149)"/>
</svg>
